<svg width="575" height="719" viewBox="0 0 575 719" fill="none" xmlns="http://www.w3.org/2000/svg">
<g clip-path="url(#clip0_432_131)">
<path d="M521.847 53.0487C503.872 44.6117 486.876 36.669 471.406 28.906C431.76 9.04364 395.81 -0.606689 361.545 -0.606689C292.532 -0.606689 244.775 39.2079 214.824 69.1588L69.5861 214.554C-8.13334 292.352 -20.5473 371.554 29.3775 471.406C37.1187 486.909 45.0839 503.94 53.5097 521.983C98.9415 619.15 145.901 719.629 222.767 719.629C224.924 719.629 227.058 719.562 229.238 719.393C308.564 713.181 331.065 611.06 350.929 520.972C354.085 506.704 357.073 493.02 360.141 480.753C365.477 459.541 375.981 446.364 404.763 417.514L408.717 413.537L411.155 411.099L417.559 404.718C446.409 375.868 459.587 365.376 480.82 360.017C492.975 356.962 506.625 353.95 520.859 350.827C610.891 330.954 712.967 308.44 719.146 228.99C725.38 148.36 621.923 99.9073 521.847 53.0487ZM672.984 224.923C668.614 280.937 543.218 297.471 468.588 316.188C435.581 324.524 415.494 341.993 385.184 372.315C383.072 374.426 380.948 376.538 378.802 378.683C376.679 380.807 374.567 382.964 372.443 385.066C342.133 415.409 324.697 435.485 316.395 468.537C297.667 543.235 281.153 668.768 225.207 673.171C224.197 673.245 223.185 673.278 222.172 673.273C162.81 673.273 112.862 538.292 68.7898 450.225C24.0321 360.699 43.2085 302.617 100.639 245.131C111.66 234.088 125.365 220.382 142.161 203.576C159.316 186.399 179.717 165.975 203.893 141.787C220.677 124.98 234.372 111.297 245.404 100.231C281.073 64.5281 316.978 43.6097 360.5 43.6097C387.047 43.6097 416.414 51.3727 450.285 68.359C539.778 113.23 677.703 164.188 672.984 224.923ZM336.179 246.647H381.117V201.71H336.179V246.647ZM336.179 179.241H381.117V134.303H336.179V179.241ZM403.585 179.241H448.523V134.303H403.585V179.241ZM403.585 246.647H448.523V201.71H403.585V246.647ZM231.633 381.573L248.72 364.485C257.146 356.059 257.146 342.387 248.72 333.973C240.295 325.547 226.645 325.547 218.219 333.973L201.12 351.071L184.022 333.973C175.596 325.547 161.946 325.547 153.52 333.973C145.094 342.398 145.094 356.059 153.52 364.485L170.618 381.584L153.52 398.682C145.094 407.097 145.094 420.758 153.52 429.183C161.946 437.609 175.607 437.609 184.022 429.183L201.12 412.097L218.713 429.689C227.139 438.115 240.789 438.115 249.215 429.689C257.64 421.263 257.64 407.592 249.215 399.166L231.633 381.573Z" fill="#739CE7" fill-opacity="0.05"/>
</g>
<defs>
<clipPath id="clip0_432_131">
<rect width="719" height="719" fill="white"/>
</clipPath>
</defs>
</svg>
